<svg width="16" height="12" viewBox="0 0 16 12" fill="none" xmlns="http://www.w3.org/2000/svg">
<path d="M10.0827 0V1.71429H0V0H10.0827ZM10.0827 3.42857V5.14286H0V3.42857H10.0827ZM0 8.57143V6.85714H6.72181V8.57143H0ZM11.7632 0H15.9643V1.71429H13.4436V9.42857C13.4436 10.1106 13.178 10.7646 12.7053 11.2468C12.2326 11.7291 11.5915 12 10.9229 12C10.2544 12 9.61326 11.7291 9.14055 11.2468C8.66783 10.7646 8.40226 10.1106 8.40226 9.42857C8.40226 8.74659 8.66783 8.09253 9.14055 7.6103C9.61326 7.12806 10.2544 6.85714 10.9229 6.85714C11.217 6.85714 11.5027 6.91714 11.7632 7.01143V0ZM10.9229 8.57143C10.7001 8.57143 10.4864 8.66173 10.3288 8.82248C10.1712 8.98322 10.0827 9.20124 10.0827 9.42857C10.0827 9.6559 10.1712 9.87392 10.3288 10.0347C10.4864 10.1954 10.7001 10.2857 10.9229 10.2857C11.1458 10.2857 11.3595 10.1954 11.5171 10.0347C11.6746 9.87392 11.7632 9.6559 11.7632 9.42857C11.7632 9.20124 11.6746 8.98322 11.5171 8.82248C11.3595 8.66173 11.1458 8.57143 10.9229 8.57143Z" fill="#424242"/>
</svg>
